{
  "accessors": [
    {
      "bufferView": 0,
      "componentType": 5126,
      "count": 32,
      "max": [
        0.7651293277740479,
        0.7671355605125427,
        0.5004745721817017
      ],
      "min": [
        -0.765779972076416,
        -0.7653145790100098,
        0.0004745483456645161
      ],
      "name": "Plane003/POSITION",
      "type": "VEC3"
    },
    {
      "bufferView": 0,
      "byteOffset": 12,
      "componentType": 5126,
      "count": 32,
      "name": "Plane003/NORMAL",
      "type": "VEC3"
    },
    {
      "bufferView": 0,
      "byteOffset": 24,
      "componentType": 5126,
      "count": 32,
      "name": "Plane003/TEXCOORD_0",
      "type": "VEC2"
    },
    {
      "bufferView": 0,
      "byteOffset": 32,
      "componentType": 5126,
      "count": 32,
      "name": "Plane003/COLOR_0",
      "type": "VEC4"
    },
    {
      "bufferView": 1,
      "componentType": 5123,
      "count": 72,
      "name": "Plane003/INDICES",
      "type": "SCALAR"
    }
  ],
  "asset": {
    "copyright": "Copyright (c) 2018-2020 Chukong Technologies Inc.",
    "generator": "FBX-glTF-conv",
    "version": "2.0"
  },
  "bufferViews": [
    {
      "buffer": 0,
      "byteLength": 1536,
      "byteStride": 48,
      "name": "Plane003",
      "target": 34962
    },
    {
      "buffer": 0,
      "byteLength": 144,
      "byteOffset": 1536,
      "target": 34963
    }
  ],
  "buffers": [
    {
      "byteLength": 1680,
      "uri": "out.bin"
    }
  ],
  "extras": {
    "FBX-glTF-conv": {
      "animationFrameRate": 30.0,
      "fbxFileHeaderInfo": {
        "creationTimeStamp": {
          "day": 3,
          "hour": 15,
          "millisecond": 297,
          "minute": 14,
          "month": 3,
          "second": 23,
          "year": 2025
        },
        "creator": "FBX SDK/FBX Plugins version 2014.0.1",
        "sceneInfo": {
          "author": "",
          "comment": "",
          "keywords": "",
          "original": {
            "applicationName": "3ds Max",
            "applicationVendor": "Autodesk",
            "applicationVersion": "2014",
            "fileName": "E:\\SVN\\trunk\\proj\\assets\\res\\model\\effect\\km_hpg.FBX"
          },
          "revision": "",
          "subject": "",
          "title": "",
          "url": "D:\\plants_client\\trunk\\proj\\assets\\res\\model\\effect\\Fx_K_009_01.fbx"
        }
      }
    }
  },
  "meshes": [
    {
      "name": "Plane003",
      "primitives": [
        {
          "attributes": {
            "COLOR_0": 3,
            "NORMAL": 1,
            "POSITION": 0,
            "TEXCOORD_0": 2
          },
          "indices": 4
        }
      ]
    }
  ],
  "nodes": [
    {
      "mesh": 0,
      "name": "Plane003",
      "rotation": [
        -0.7071067690849304,
        -6.181723932741079e-08,
        -6.181723932741079e-08,
        0.7071067690849304
      ]
    }
  ],
  "scenes": [
    {
      "nodes": [
        0
      ]
    }
  ]
}