{
  "accessors": [
    {
      "bufferView": 0,
      "componentType": 5126,
      "count": 2317,
      "max": [
        0.009999999776482582,
        0.009999999776482582,
        0.009999999776482582
      ],
      "min": [
        -0.009999999776482582,
        -0.009999999776482582,
        -0.009999999776482582
      ],
      "name": "Cube/POSITION",
      "type": "VEC3"
    },
    {
      "bufferView": 0,
      "byteOffset": 12,
      "componentType": 5126,
      "count": 2317,
      "name": "Cube/NORMAL",
      "type": "VEC3"
    },
    {
      "bufferView": 0,
      "byteOffset": 24,
      "componentType": 5126,
      "count": 2317,
      "name": "Cube/TEXCOORD_0",
      "type": "VEC2"
    },
    {
      "bufferView": 1,
      "componentType": 5123,
      "count": 3960,
      "name": "Cube/INDICES",
      "type": "SCALAR"
    },
    {
      "bufferView": 2,
      "componentType": 5126,
      "count": 240,
      "max": [
        0.00779292918741703,
        0.009351516142487526,
        0.0014931339537724853
      ],
      "min": [
        -0.00779292918741703,
        -0.009351516142487526,
        -0.00013596151256933808
      ],
      "name": "柱体.001/POSITION",
      "type": "VEC3"
    },
    {
      "bufferView": 2,
      "byteOffset": 12,
      "componentType": 5126,
      "count": 240,
      "name": "柱体.001/NORMAL",
      "type": "VEC3"
    },
    {
      "bufferView": 2,
      "byteOffset": 24,
      "componentType": 5126,
      "count": 240,
      "name": "柱体.001/TEXCOORD_0",
      "type": "VEC2"
    },
    {
      "bufferView": 3,
      "componentType": 5123,
      "count": 408,
      "name": "柱体.001/INDICES",
      "type": "SCALAR"
    },
    {
      "bufferView": 4,
      "componentType": 5126,
      "count": 1,
      "name": "Cube/translation/Output",
      "type": "VEC3"
    },
    {
      "bufferView": 5,
      "componentType": 5126,
      "count": 1,
      "max": [
        16.66666603088379
      ],
      "min": [
        16.66666603088379
      ],
      "name": "Cube/translation/Input",
      "type": "SCALAR"
    },
    {
      "bufferView": 6,
      "componentType": 5126,
      "count": 394,
      "name": "Cube/rotation/Output",
      "type": "VEC4"
    },
    {
      "bufferView": 7,
      "componentType": 5126,
      "count": 394,
      "max": [
        16.66666603088379
      ],
      "min": [
        0.0
      ],
      "name": "Cube/rotation/Input",
      "type": "SCALAR"
    },
    {
      "bufferView": 8,
      "componentType": 5126,
      "count": 1,
      "name": "Cube/scale/Output",
      "type": "VEC3"
    },
    {
      "bufferView": 9,
      "componentType": 5126,
      "count": 1,
      "max": [
        16.66666603088379
      ],
      "min": [
        16.66666603088379
      ],
      "name": "Cube/scale/Input",
      "type": "SCALAR"
    },
    {
      "bufferView": 10,
      "componentType": 5126,
      "count": 1,
      "name": "柱体.001/translation/Output",
      "type": "VEC3"
    },
    {
      "bufferView": 11,
      "componentType": 5126,
      "count": 1,
      "max": [
        16.66666603088379
      ],
      "min": [
        16.66666603088379
      ],
      "name": "柱体.001/translation/Input",
      "type": "SCALAR"
    },
    {
      "bufferView": 12,
      "componentType": 5126,
      "count": 394,
      "name": "柱体.001/rotation/Output",
      "type": "VEC4"
    },
    {
      "bufferView": 13,
      "componentType": 5126,
      "count": 394,
      "max": [
        16.66666603088379
      ],
      "min": [
        0.0
      ],
      "name": "柱体.001/rotation/Input",
      "type": "SCALAR"
    },
    {
      "bufferView": 14,
      "componentType": 5126,
      "count": 1,
      "name": "柱体.001/scale/Output",
      "type": "VEC3"
    },
    {
      "bufferView": 15,
      "componentType": 5126,
      "count": 1,
      "max": [
        16.66666603088379
      ],
      "min": [
        16.66666603088379
      ],
      "name": "柱体.001/scale/Input",
      "type": "SCALAR"
    }
  ],
  "animations": [
    {
      "channels": [
        {
          "sampler": 0,
          "target": {
            "node": 0,
            "path": "translation"
          }
        },
        {
          "sampler": 1,
          "target": {
            "node": 0,
            "path": "rotation"
          }
        },
        {
          "sampler": 2,
          "target": {
            "node": 0,
            "path": "scale"
          }
        }
      ],
      "name": "Cube|Cube动作.001",
      "samplers": [
        {
          "input": 9,
          "output": 8
        },
        {
          "input": 11,
          "output": 10
        },
        {
          "input": 13,
          "output": 12
        }
      ]
    },
    {
      "channels": [
        {
          "sampler": 0,
          "target": {
            "node": 1,
            "path": "translation"
          }
        },
        {
          "sampler": 1,
          "target": {
            "node": 1,
            "path": "rotation"
          }
        },
        {
          "sampler": 2,
          "target": {
            "node": 1,
            "path": "scale"
          }
        }
      ],
      "name": "柱体.001|Cube动作.001",
      "samplers": [
        {
          "input": 15,
          "output": 14
        },
        {
          "input": 17,
          "output": 16
        },
        {
          "input": 19,
          "output": 18
        }
      ]
    }
  ],
  "asset": {
    "copyright": "Copyright (c) 2018-2020 Chukong Technologies Inc.",
    "generator": "FBX-glTF-conv",
    "version": "2.0"
  },
  "bufferViews": [
    {
      "buffer": 0,
      "byteLength": 74144,
      "byteStride": 32,
      "name": "Cube",
      "target": 34962
    },
    {
      "buffer": 0,
      "byteLength": 7920,
      "byteOffset": 74144,
      "target": 34963
    },
    {
      "buffer": 0,
      "byteLength": 7680,
      "byteOffset": 82064,
      "byteStride": 32,
      "name": "柱体.001",
      "target": 34962
    },
    {
      "buffer": 0,
      "byteLength": 816,
      "byteOffset": 89744,
      "target": 34963
    },
    {
      "buffer": 0,
      "byteLength": 12,
      "byteOffset": 90560
    },
    {
      "buffer": 0,
      "byteLength": 4,
      "byteOffset": 90572
    },
    {
      "buffer": 0,
      "byteLength": 6304,
      "byteOffset": 90576
    },
    {
      "buffer": 0,
      "byteLength": 1576,
      "byteOffset": 96880
    },
    {
      "buffer": 0,
      "byteLength": 12,
      "byteOffset": 98456
    },
    {
      "buffer": 0,
      "byteLength": 4,
      "byteOffset": 98468
    },
    {
      "buffer": 0,
      "byteLength": 12,
      "byteOffset": 98472
    },
    {
      "buffer": 0,
      "byteLength": 4,
      "byteOffset": 98484
    },
    {
      "buffer": 0,
      "byteLength": 6304,
      "byteOffset": 98488
    },
    {
      "buffer": 0,
      "byteLength": 1576,
      "byteOffset": 104792
    },
    {
      "buffer": 0,
      "byteLength": 12,
      "byteOffset": 106368
    },
    {
      "buffer": 0,
      "byteLength": 4,
      "byteOffset": 106380
    }
  ],
  "buffers": [
    {
      "byteLength": 106384,
      "uri": "out.bin"
    }
  ],
  "extras": {
    "FBX-glTF-conv": {
      "animationFrameRate": 24.0,
      "fbxFileHeaderInfo": {
        "creationTimeStamp": {
          "day": 22,
          "hour": 21,
          "millisecond": 452,
          "minute": 16,
          "month": 4,
          "second": 7,
          "year": 2025
        },
        "creator": "Blender (stable FBX IO) - 4.3.2 - 5.12.5",
        "sceneInfo": {
          "author": "",
          "comment": "",
          "keywords": "",
          "original": {
            "applicationName": "Blender (stable FBX IO)",
            "applicationVendor": "Blender Foundation",
            "applicationVersion": "4.3.2",
            "fileName": "/foobar.fbx"
          },
          "revision": "",
          "subject": "",
          "title": "",
          "url": "D:\\plants_client\\trunk\\proj\\assets\\res\\model\\cost.fbx"
        }
      }
    }
  },
  "images": [
    {
      "extras": {
        "FBX-glTF-conv": {
          "fileName": "D:\\plants_client\\trunk\\proj\\temp\\asset-db\\assets\\fbx.FBX-glTF-conv\\951e202e-c4ac-462e-b0cc-f083447a61ab\\output\\.fbm\\46B81597\\cost.fbm/cost.png",
          "relativeFileName": "..\\..\\..\\temp\\asset-db\\assets\\fbx.FBX-glTF-conv\\951e202e-c4ac-462e-b0cc-f083447a61ab\\output\\.fbm\\46B81597\\cost.fbm\\cost.png"
        }
      },
      "name": "base_color_texture",
      "uri": "cost.png"
    },
    {
      "extras": {
        "FBX-glTF-conv": {
          "fileName": "D:\\plants_client\\trunk\\proj\\temp\\asset-db\\assets\\fbx.FBX-glTF-conv\\951e202e-c4ac-462e-b0cc-f083447a61ab\\output\\.fbm\\46B81597\\cost.fbm/dizuo.png",
          "relativeFileName": "..\\..\\..\\temp\\asset-db\\assets\\fbx.FBX-glTF-conv\\951e202e-c4ac-462e-b0cc-f083447a61ab\\output\\.fbm\\46B81597\\cost.fbm\\dizuo.png"
        }
      },
      "name": "base_color_texture",
      "uri": "dizuo.png"
    }
  ],
  "materials": [
    {
      "extras": {
        "FBX-glTF-conv": {
          "raw": {
            "properties": {
              "ambient": {
                "value": [
                  0.05087608844041824,
                  0.05087608844041824,
                  0.05087608844041824
                ]
              },
              "ambientFactor": {
                "value": 0.0
              },
              "bump": {
                "value": [
                  0.0,
                  0.0,
                  0.0
                ]
              },
              "bumpFactor": {
                "value": 0.0
              },
              "diffuse": {
                "texture": {
                  "index": 0
                },
                "value": [
                  0.800000011920929,
                  0.800000011920929,
                  0.800000011920929
                ]
              },
              "diffuseFactor": {
                "value": 1.0
              },
              "displacementColor": {
                "value": [
                  0.0,
                  0.0,
                  0.0
                ]
              },
              "displacementFactor": {
                "value": 1.0
              },
              "emissive": {
                "value": [
                  1.0,
                  1.0,
                  1.0
                ]
              },
              "emissiveFactor": {
                "value": 0.0
              },
              "normalMap": {
                "value": [
                  0.0,
                  0.0,
                  0.0
                ]
              },
              "reflection": {
                "value": [
                  0.800000011920929,
                  0.800000011920929,
                  0.800000011920929
                ]
              },
              "reflectionFactor": {
                "value": 0.0
              },
              "shadingModel": "Phong",
              "shininess": {
                "value": 25.0
              },
              "specular": {
                "value": [
                  0.800000011920929,
                  0.800000011920929,
                  0.800000011920929
                ]
              },
              "specularFactor": {
                "value": 0.25
              },
              "transparencyFactor": {
                "value": 0.0
              },
              "transparentColor": {
                "value": [
                  0.0,
                  0.0,
                  0.0
                ]
              },
              "vectorDisplacementColor": {
                "value": [
                  0.0,
                  0.0,
                  0.0
                ]
              },
              "vectorDisplacementFactor": {
                "value": 1.0
              }
            },
            "type": "phong"
          }
        }
      },
      "name": "Material"
    },
    {
      "extras": {
        "FBX-glTF-conv": {
          "raw": {
            "properties": {
              "ambient": {
                "value": [
                  0.05087608844041824,
                  0.05087608844041824,
                  0.05087608844041824
                ]
              },
              "ambientFactor": {
                "value": 0.0
              },
              "bump": {
                "value": [
                  0.0,
                  0.0,
                  0.0
                ]
              },
              "bumpFactor": {
                "value": 0.0
              },
              "diffuse": {
                "texture": {
                  "index": 1
                },
                "value": [
                  0.800000011920929,
                  0.800000011920929,
                  0.800000011920929
                ]
              },
              "diffuseFactor": {
                "value": 1.0
              },
              "displacementColor": {
                "value": [
                  0.0,
                  0.0,
                  0.0
                ]
              },
              "displacementFactor": {
                "value": 1.0
              },
              "emissive": {
                "value": [
                  1.0,
                  1.0,
                  1.0
                ]
              },
              "emissiveFactor": {
                "value": 0.0
              },
              "normalMap": {
                "value": [
                  0.0,
                  0.0,
                  0.0
                ]
              },
              "reflection": {
                "value": [
                  0.800000011920929,
                  0.800000011920929,
                  0.800000011920929
                ]
              },
              "reflectionFactor": {
                "value": 0.0
              },
              "shadingModel": "Phong",
              "shininess": {
                "value": 25.0
              },
              "specular": {
                "value": [
                  0.800000011920929,
                  0.800000011920929,
                  0.800000011920929
                ]
              },
              "specularFactor": {
                "value": 0.25
              },
              "transparencyFactor": {
                "value": 0.0
              },
              "transparentColor": {
                "value": [
                  0.0,
                  0.0,
                  0.0
                ]
              },
              "vectorDisplacementColor": {
                "value": [
                  0.0,
                  0.0,
                  0.0
                ]
              },
              "vectorDisplacementFactor": {
                "value": 1.0
              }
            },
            "type": "phong"
          }
        }
      },
      "name": "材质"
    }
  ],
  "meshes": [
    {
      "name": "Cube",
      "primitives": [
        {
          "attributes": {
            "NORMAL": 1,
            "POSITION": 0,
            "TEXCOORD_0": 2
          },
          "indices": 3,
          "material": 0
        }
      ]
    },
    {
      "name": "柱体.001",
      "primitives": [
        {
          "attributes": {
            "NORMAL": 5,
            "POSITION": 4,
            "TEXCOORD_0": 6
          },
          "indices": 7,
          "material": 1
        }
      ]
    }
  ],
  "nodes": [
    {
      "mesh": 0,
      "name": "Cube",
      "rotation": [
        -0.5931993126869202,
        0.21581771969795227,
        -0.03418215364217758,
        0.7748347520828247
      ],
      "scale": [
        99.99999237060547,
        99.99999237060547,
        100.0
      ],
      "translation": [
        0.0,
        2.5,
        0.0
      ]
    },
    {
      "mesh": 1,
      "name": "柱体.001",
      "rotation": [
        0.5,
        -0.4999999701976776,
        -0.5,
        -0.5
      ],
      "scale": [
        140.39259338378906,
        140.39259338378906,
        140.39259338378906
      ],
      "translation": [
        0.0,
        0.0,
        7.086017461688243e-08
      ]
    }
  ],
  "samplers": [
    {}
  ],
  "scenes": [
    {
      "name": "Scene",
      "nodes": [
        0,
        1
      ]
    }
  ],
  "textures": [
    {
      "name": "base_color_texture",
      "sampler": 0,
      "source": 0
    },
    {
      "name": "base_color_texture",
      "sampler": 0,
      "source": 1
    }
  ]
}